<svg width="116" height="118" viewBox="0 0 116 118" fill="none" xmlns="http://www.w3.org/2000/svg">
<circle cx="58" cy="59" r="58" fill="#E0F4FE"/>
<circle cx="70.75" cy="37.75" r="6.75" fill="#FF8D21"/>
<path d="M60.2222 71.208V86.5142C59.0093 86.7251 57.9019 86.8306 56.8999 86.8306C50.9673 86.8306 46.0234 84.8794 42.0684 80.9771C38.1133 77.0747 36.1357 72.1836 36.1357 66.3037C36.1357 60.582 38.1265 55.7305 42.1079 51.749C46.1157 47.7676 50.9805 45.7769 56.7021 45.7769C63.083 45.7769 68.106 47.6489 71.771 51.3931C75.4624 55.1108 77.3081 60.1997 77.3081 66.6597V86H62.5161V67.7275C62.5161 65.6445 62.002 63.9834 60.9736 62.7441C59.9717 61.5049 58.6138 60.8853 56.8999 60.8853C55.3442 60.8853 53.9995 61.4521 52.8657 62.5859C51.7319 63.7197 51.165 65.0645 51.165 66.6201C51.165 68.2549 51.6792 69.5996 52.7075 70.6543C53.7358 71.709 55.041 72.2363 56.623 72.2363C57.915 72.2363 59.1147 71.8936 60.2222 71.208Z" fill="#0083C3"/>
<path d="M77.2916 71H62.5V87H77.2916V71Z" fill="#0083C3"/>
</svg>
